<svg width="194" height="61" viewBox="0 0 194 61" fill="none" xmlns="http://www.w3.org/2000/svg">
<path d="M79.524 24.94L79.524 31.24L87.984 31.24L87.984 35.236L79.524 35.236L79.524 41.896L89.064 41.896L89.064 46L74.484 46L74.484 20.836L89.064 20.836L89.064 24.94L79.524 24.94ZM115.856 46L110.816 46L99.4042 28.756L99.4042 46L94.3642 46L94.3642 20.836L99.4042 20.836L110.816 38.116L110.816 20.836L115.856 20.836L115.856 46ZM130.341 20.872C132.981 20.872 135.297 21.388 137.289 22.42C139.305 23.452 140.853 24.928 141.933 26.848C143.037 28.744 143.589 30.952 143.589 33.472C143.589 35.992 143.037 38.2 141.933 40.096C140.853 41.968 139.305 43.42 137.289 44.452C135.297 45.484 132.981 46 130.341 46L121.557 46L121.557 20.872L130.341 20.872ZM130.161 41.716C132.801 41.716 134.841 40.996 136.281 39.556C137.721 38.116 138.441 36.088 138.441 33.472C138.441 30.856 137.721 28.816 136.281 27.352C134.841 25.864 132.801 25.12 130.161 25.12L126.597 25.12L126.597 41.716L130.161 41.716ZM163.597 20.872L163.597 24.94L153.121 24.94L153.121 31.384L161.149 31.384L161.149 35.38L153.121 35.38L153.121 46L148.081 46L148.081 20.872L163.597 20.872ZM184.991 20.872L184.991 24.94L178.295 24.94L178.295 46L173.255 46L173.255 24.94L166.559 24.94L166.559 20.872L184.991 20.872Z" fill="white"/>
<path d="M41.8152 33.8427C41.3094 36.0138 40.2416 37.9643 38.7764 39.527L50.6459 51.5785L54.9647 47.1936L41.8152 33.8427Z" fill="#52FF00"/>
<path d="M37.6388 1.605L31.7393 -8.33429e-07L26.7677 18.8386L22.2792 1.83098L16.3796 3.43599L21.2291 21.8114L9.15012 9.54752L4.83133 13.9325L18.0804 27.3846L1.58079 22.8958L5.66703e-07 28.8857L18.0279 33.7903C17.8215 32.8864 17.7123 31.9446 17.7123 30.9769C17.7123 24.1271 23.1813 18.5743 29.9277 18.5743C36.6741 18.5743 42.1431 24.1271 42.1431 30.9769C42.1431 31.9383 42.0353 32.8744 41.8315 33.7729L58.2155 38.2302L59.7962 32.2403L41.6966 27.3162L58.1974 22.8271L56.6165 16.8372L38.5177 21.761L50.5966 9.49717L46.2778 5.11222L33.2124 18.3777L37.6388 1.605Z" fill="#52FF00"/>
<path d="M38.6566 39.6531C37.1737 41.1909 35.2997 42.3385 33.1982 42.9298L37.5173 59.2958L43.4169 57.6907L38.6566 39.6531Z" fill="#52FF00"/>
<path d="M32.9779 42.9897C32.0029 43.2442 30.981 43.3794 29.9278 43.3794C28.7995 43.3794 27.7069 43.2241 26.6697 42.9333L22.3467 59.3142L28.2462 60.9191L32.9779 42.9897Z" fill="#52FF00"/>
<path d="M26.4611 42.8728C24.3917 42.2521 22.551 41.0899 21.0984 39.5477L9.19971 51.6287L13.5185 56.0137L26.4611 42.8728Z" fill="#52FF00"/>
<path d="M20.9991 39.4409C19.5714 37.889 18.5314 35.9646 18.0364 33.8269L1.59888 38.2989L3.17965 44.2887L20.9991 39.4409Z" fill="#52FF00"/>
</svg>
